HIERARCHY
ROOT joint_Root
{
	OFFSET 0.0 0.0 0.0
	CHANNELS 6 Xposition Yposition Zposition Zrotation Xrotation Yrotation 
	JOINT Hips
	{
		OFFSET 4.5925 91.4895 -427.239
		CHANNELS 6 Xposition Yposition Zposition Zrotation Xrotation Yrotation 
		JOINT Spine
		{
			OFFSET 15.7357 0.0 0.0
			CHANNELS 6 Xposition Yposition Zposition Zrotation Xrotation Yrotation 
			JOINT Chest
			{
				OFFSET 8.98455 -0.406207 0.0
				CHANNELS 6 Xposition Yposition Zposition Zrotation Xrotation Yrotation 
				JOINT Neck
				{
					OFFSET 16.3773 0.0 0.0
					CHANNELS 6 Xposition Yposition Zposition Zrotation Xrotation Yrotation 
					JOINT Head
					{
						OFFSET 6.45672 0.0 0.0
						CHANNELS 6 Xposition Yposition Zposition Zrotation Xrotation Yrotation 
						End Site
						{
							OFFSET 0.0 0.0 0.0
						}
					}
				}
				JOINT Shoulder_L
				{
					OFFSET 12.9942 -0.242716 4.98039
					CHANNELS 6 Xposition Yposition Zposition Zrotation Xrotation Yrotation 
					JOINT UpperArm_L
					{
						OFFSET 5.34809 0.0 0.0
						CHANNELS 6 Xposition Yposition Zposition Zrotation Xrotation Yrotation 
						JOINT LowerArm_L
						{
							OFFSET 24.3286 1.87007e-05 0.0
							CHANNELS 6 Xposition Yposition Zposition Zrotation Xrotation Yrotation 
							JOINT Hand_L
							{
								OFFSET 22.2916 0.0 0.0
								CHANNELS 6 Xposition Yposition Zposition Zrotation Xrotation Yrotation 
								End Site
								{
									OFFSET 0.0 0.0 0.0
								}
							}
						}
					}
				}
				JOINT Shoulder_R
				{
					OFFSET 12.9945 -0.242716 -4.98039
					CHANNELS 6 Xposition Yposition Zposition Zrotation Xrotation Yrotation 
					JOINT UpperArm_R
					{
						OFFSET -5.34813 0.0 0.0
						CHANNELS 6 Xposition Yposition Zposition Zrotation Xrotation Yrotation 
						JOINT LowerArm_R
						{
							OFFSET -24.3289 0.000322201 0.0
							CHANNELS 6 Xposition Yposition Zposition Zrotation Xrotation Yrotation 
							JOINT Hand_R
							{
								OFFSET -22.2915 -0.000108084 0.0
								CHANNELS 6 Xposition Yposition Zposition Zrotation Xrotation Yrotation 
								End Site
								{
									OFFSET 0.0 0.0 0.0
								}
							}
						}
					}
				}
			}
		}
		JOINT UpperLeg_L
		{
			OFFSET -2.19248 -6.46944 0.0
			CHANNELS 6 Xposition Yposition Zposition Zrotation Xrotation Yrotation 
			JOINT LowerLeg_L
			{
				OFFSET 39.0811 0.0 -1.23785e-05
				CHANNELS 6 Xposition Yposition Zposition Zrotation Xrotation Yrotation 
				JOINT Foot_L
				{
					OFFSET 40.9854 0.0 -1.26872e-05
					CHANNELS 6 Xposition Yposition Zposition Zrotation Xrotation Yrotation 
					JOINT Toes_L
					{
						OFFSET 11.7543 0.0 0.0
						CHANNELS 6 Xposition Yposition Zposition Zrotation Xrotation Yrotation 
						End Site
						{
							OFFSET 0.0 0.0 0.0
						}
					}
				}
			}
		}
		JOINT UpperLeg_R
		{
			OFFSET -2.19251 6.46944 0.0
			CHANNELS 6 Xposition Yposition Zposition Zrotation Xrotation Yrotation 
			JOINT LowerLeg_R
			{
				OFFSET -39.0811 -0.00228153 -0.0401928
				CHANNELS 6 Xposition Yposition Zposition Zrotation Xrotation Yrotation 
				JOINT Foot_R
				{
					OFFSET -40.9854 0.0 0.0
					CHANNELS 6 Xposition Yposition Zposition Zrotation Xrotation Yrotation 
					JOINT Toes_R
					{
						OFFSET -11.7543 0.0 0.0
						CHANNELS 6 Xposition Yposition Zposition Zrotation Xrotation Yrotation 
						End Site
						{
							OFFSET 0.0 0.0 0.0
						}
					}
				}
			}
		}
	}
}
MOTION
Frames:	4
Frame Time:	0.0333333
0.000000 0.000000 0.000000 0.000000 0.000000 -0.000000 -51.942100 87.928800 186.599000 73.646300 85.843600 19.654900 15.735700 0.000005 -0.000001 80.185900 81.368100 -79.249200 8.984550 -0.406207 -0.000000 9.278660 -2.914090 2.108620 16.377300 -0.000001 -0.000001 4.000290 -3.154220 0.845208 6.456720 -0.000001 -0.000000 1.152000 -1.765450 0.467582 12.994200 -0.242716 4.980390 -91.104300 3.730790 -73.498500 5.348090 -0.000007 -0.000001 -58.815900 32.269900 -24.843400 24.328600 0.000019 0.000005 10.118300 16.581400 -32.019300 22.291600 -0.000001 0.000005 15.886500 5.311370 -0.248931 12.994500 -0.242716 -4.980390 87.990300 10.659100 -79.257700 -5.348130 -0.000001 -0.000004 -65.992500 30.072600 -5.908630 -24.328900 0.000322 -0.000009 1.184970 4.240960 -15.639800 -22.291500 -0.000108 -0.000004 13.373400 5.399380 -2.917420 -2.192480 -6.469440 -0.000000 -176.176000 -9.713690 -2.814870 39.081100 -0.000007 -0.000012 0.025895 -0.023372 47.927800 40.985400 -0.000006 -0.000013 3.414990 4.931620 -70.878000 11.754300 -0.000000 0.000003 -0.069055 -0.360154 -31.486200 -2.192510 6.469440 -0.000001 -174.401000 13.698100 156.974000 -39.081100 -0.002282 -0.040193 -0.207352 0.225571 43.037300 -40.985400 0.000008 0.000006 7.869300 -1.810690 -68.081600 -11.754300 -0.000006 -0.000006 -0.005737 -0.068426 -19.357700
0.000000 0.000000 0.000000 0.000000 0.000000 -0.000000 -49.417700 87.865200 186.989000 82.154800 85.962000 12.274800 15.735700 0.000005 -0.000001 81.863700 81.083900 -81.000600 8.984550 -0.406207 -0.000000 9.913000 -2.491970 1.941290 16.377300 -0.000001 -0.000001 4.192550 -3.254880 1.184650 6.456720 -0.000001 -0.000000 1.126950 -1.954080 0.505767 12.994200 -0.242716 4.980390 -91.003200 3.388910 -73.499500 5.348090 -0.000007 -0.000001 -61.552300 32.437000 -22.447900 24.328600 0.000019 0.000005 9.913790 17.453400 -30.230200 22.291600 -0.000001 0.000005 15.443800 5.298100 0.125507 12.994500 -0.242716 -4.980390 88.095100 10.333200 -79.495600 -5.348130 -0.000001 -0.000004 -65.508800 30.176500 -7.259970 -24.328900 0.000322 -0.000009 1.325940 4.711670 -15.748800 -22.291500 -0.000108 -0.000004 13.418200 5.393870 -2.739250 -2.192480 -6.469440 -0.000000 -175.626000 -10.194300 -6.543780 39.081100 -0.000007 -0.000012 0.063469 -0.041515 56.808900 40.985400 -0.000006 -0.000013 0.946707 6.424640 -62.587900 11.754300 -0.000000 0.000003 -0.062182 -0.338816 -30.577300 -2.192510 6.469440 -0.000001 -175.670000 15.451600 159.622000 -39.081100 -0.002282 -0.040193 -0.236281 0.247567 44.057100 -40.985400 0.000008 0.000006 8.153850 -0.462254 -70.723700 -11.754300 -0.000006 -0.000006 -0.004575 -0.057293 -18.904000
0.000000 0.000000 0.000000 0.000000 0.000000 -0.000000 -47.060200 87.838900 187.342000 85.251900 85.970100 10.019000 15.735700 0.000005 -0.000001 83.490600 80.836300 -82.603800 8.984550 -0.406207 -0.000000 10.464600 -2.042700 1.959690 16.377300 -0.000001 -0.000001 4.148920 -3.299350 1.606250 6.456720 -0.000001 -0.000000 1.094200 -2.154750 0.614552 12.994200 -0.242716 4.980390 -91.032800 3.476490 -73.442700 5.348090 -0.000007 -0.000001 -63.455700 32.800100 -20.137400 24.328600 0.000019 0.000005 9.256520 17.529000 -28.418300 22.291600 -0.000001 0.000005 14.600300 5.296000 0.184574 12.994500 -0.242716 -4.980390 88.196300 10.135500 -79.854300 -5.348130 -0.000001 -0.000004 -64.556800 30.201700 -8.929080 -24.328900 0.000322 -0.000009 1.289330 4.390940 -16.394700 -22.291500 -0.000108 -0.000004 13.773900 5.394510 -2.759790 -2.192480 -6.469440 -0.000000 -175.012000 -9.753070 -10.850900 39.081100 -0.000007 -0.000012 0.121525 -0.057527 64.666200 40.985400 -0.000006 -0.000013 -4.398200 5.400090 -54.942700 11.754300 -0.000000 0.000003 -0.008499 -0.092066 -20.326300 -2.192510 6.469440 -0.000001 -176.645000 17.644200 162.277000 -39.081100 -0.002282 -0.040193 -0.227425 0.235385 44.423100 -40.985400 0.000008 0.000006 8.839910 1.298180 -73.030400 -11.754300 -0.000006 -0.000006 -0.004116 -0.052644 -18.714600
0.000000 0.000000 0.000000 0.000000 0.000000 -0.000000 -44.875400 87.898500 187.639000 86.662400 85.230500 8.968750 15.735700 0.000005 -0.000001 86.108000 80.760000 -85.234000 8.984550 -0.406207 -0.000000 10.683000 -1.223240 1.861520 16.377300 -0.000001 -0.000001 4.159820 -3.261050 1.990560 6.456720 -0.000001 -0.000000 1.125750 -2.384210 0.916172 12.994200 -0.242716 4.980390 -91.159900 3.861010 -73.265600 5.348090 -0.000007 -0.000001 -64.327000 33.893800 -18.152400 24.328600 0.000019 0.000005 8.598260 17.706100 -26.434900 22.291600 -0.000001 0.000005 14.131600 5.303480 -0.025742 12.994500 -0.242716 -4.980390 88.204400 10.391900 -80.140600 -5.348130 -0.000001 -0.000004 -62.630400 30.833100 -11.184100 -24.328900 0.000322 -0.000009 1.088020 3.536880 -17.127000 -22.291500 -0.000108 -0.000004 14.195800 5.403160 -3.040320 -2.192480 -6.469440 -0.000000 -174.941000 -10.662200 -13.677700 39.081100 -0.000007 -0.000012 0.132252 -0.050604 69.059400 40.985400 -0.000006 -0.000013 -2.854170 2.844340 -57.281900 11.754300 -0.000000 0.000003 -0.004383 -0.055371 -18.829400 -2.192510 6.469440 -0.000001 -177.236000 18.229900 164.581000 -39.081100 -0.002282 -0.040193 -0.175205 0.183825 44.153600 -40.985400 0.000008 0.000006 9.620790 2.233000 -74.739600 -11.754300 -0.000006 -0.000006 -0.003407 -0.045126 -18.408500
